<?xml version="1.0" encoding="UTF-8"?>
<svg xmlns="http://www.w3.org/2000/svg" width="797.695" height="455.334" viewBox="10.179 34.915 797.695 455.334"><g id="DF1" data-id="DF1" transform="translate(45, 105)"><path d="M5.72663 10.4932C8.48806 10.4932 10.7266 8.2546 10.7266 5.49317C10.7266 2.73175 8.48806 0.493164 5.72663 0.493164C2.96521 0.493164 0.726562 2.73175 0.726562 5.49317C0.726562 8.2546 2.96521 10.4932 5.72663 10.4932Z" fill="rgba(6, 145, 244, 0.83)" stroke="rgba(6, 145, 244, 0.83)" stroke-width="0.861" stroke-miterlimit="10"/></g><g id="DF2" data-id="DF2" transform="translate(45, 145)"><path d="M5.72663 10.4932C8.48806 10.4932 10.7266 8.2546 10.7266 5.49317C10.7266 2.73175 8.48806 0.493164 5.72663 0.493164C2.96521 0.493164 0.726562 2.73175 0.726562 5.49317C0.726562 8.2546 2.96521 10.4932 5.72663 10.4932Z" fill="rgba(6, 145, 244, 0.83)" stroke="rgba(6, 145, 244, 0.83)" stroke-width="0.861" stroke-miterlimit="10"/></g><g id="DF3" data-id="DF3" transform="translate(45, 185)"><path d="M5.72663 10.4932C8.48806 10.4932 10.7266 8.2546 10.7266 5.49317C10.7266 2.73175 8.48806 0.493164 5.72663 0.493164C2.96521 0.493164 0.726562 2.73175 0.726562 5.49317C0.726562 8.2546 2.96521 10.4932 5.72663 10.4932Z" fill="rgba(6, 145, 244, 0.83)" stroke="rgba(6, 145, 244, 0.83)" stroke-width="0.861" stroke-miterlimit="10"/></g><g id="DF4" data-id="DF4" transform="translate(45, 225)"><path d="M5.72663 10.4932C8.48806 10.4932 10.7266 8.2546 10.7266 5.49317C10.7266 2.73175 8.48806 0.493164 5.72663 0.493164C2.96521 0.493164 0.726562 2.73175 0.726562 5.49317C0.726562 8.2546 2.96521 10.4932 5.72663 10.4932Z" fill="rgba(6, 145, 244, 0.83)" stroke="rgba(6, 145, 244, 0.83)" stroke-width="0.861" stroke-miterlimit="10"/></g><g id="DF5" data-id="DF5" transform="translate(45, 265)"><path d="M5.72663 10.4932C8.48806 10.4932 10.7266 8.2546 10.7266 5.49317C10.7266 2.73175 8.48806 0.493164 5.72663 0.493164C2.96521 0.493164 0.726562 2.73175 0.726562 5.49317C0.726562 8.2546 2.96521 10.4932 5.72663 10.4932Z" fill="rgba(6, 145, 244, 0.83)" stroke="rgba(6, 145, 244, 0.83)" stroke-width="0.861" stroke-miterlimit="10"/></g><g id="DF6" data-id="DF6" transform="translate(45, 305)"><path d="M5.72663 10.4932C8.48806 10.4932 10.7266 8.2546 10.7266 5.49317C10.7266 2.73175 8.48806 0.493164 5.72663 0.493164C2.96521 0.493164 0.726562 2.73175 0.726562 5.49317C0.726562 8.2546 2.96521 10.4932 5.72663 10.4932Z" fill="rgba(6, 145, 244, 0.83)" stroke="rgba(6, 145, 244, 0.83)" stroke-width="0.861" stroke-miterlimit="10"/></g><g id="AC1" data-id="AC1" transform="translate(85, 85)"><path d="M8.29385 3.4452L8.29385 4.19558C8.29385 4.3671 8.14323 4.5061 7.95748 4.5061L2.85064 4.5061C2.66484 4.5061 2.51426 4.3671 2.51426 4.19558L2.51426 3.4452C2.51426 3.27368 2.66484 3.13467 2.85064 3.13467L7.95748 3.13467C8.14323 3.13467 8.29385 3.27368 8.29385 3.4452Z" fill="#D9D9D9"/><path d="M8.69388 21.5918C8.59184 21.5918 8.53061 21.5714 8.44898 21.5306C8.08163 21.2857 6.34694 20 7.79592 17.449C8.18367 16.7551 8.28571 16.2041 8.14286 15.7551C7.97959 15.2449 7.44898 15.0408 7.44898 15.0408C7.20408 14.9388 7.08163 14.6531 7.18367 14.4082C7.26531 14.2041 7.42857 14.0816 7.63265 14.0816C7.69388 14.0816 7.7551 14.102 7.81633 14.1224C7.89796 14.1224 8.7551 14.4898 9.10204 15.4082C9.36735 16.1429 9.22449 17 8.67347 17.9592C7.65306 19.7551 8.73469 20.551 8.95918 20.6939C9.18367 20.8163 9.26531 21.1224 9.14286 21.3673C9.02041 21.5306 8.83674 21.5918 8.69388 21.5918ZM12 20.5102C11.898 20.5102 11.8367 20.4898 11.7551 20.449C11.0204 20.0204 9.97959 18.6939 11.1429 16.6122C11.4898 15.9796 11.5918 15.4694 11.449 15.0816C11.3061 14.6327 10.8367 14.449 10.8367 14.449C10.5714 14.3469 10.449 14.0816 10.551 13.8163C10.6327 13.6122 10.7959 13.4898 11 13.4898C11.0612 13.4898 11.1224 13.5102 11.1837 13.5306C11.3878 13.6122 12.102 13.9388 12.3878 14.7551C12.6327 15.449 12.5102 16.2449 12 17.1224C11.0204 18.8776 12.2041 19.5918 12.2653 19.6122C12.3673 19.6735 12.449 19.7755 12.4898 19.898C12.5306 20.0204 12.5102 20.1633 12.449 20.2857C12.3265 20.449 12.1429 20.5102 12 20.5102ZM5.22449 20.5102C5.12245 20.5102 5.06122 20.4898 4.97959 20.449C4.2449 20.0204 3.20408 18.6939 4.36735 16.6122C4.71429 15.9796 4.81633 15.4694 4.67347 15.0816C4.53061 14.6327 4.06122 14.449 4.06122 14.449C3.79592 14.3469 3.67347 14.0816 3.77551 13.8163C3.85714 13.6122 4.02041 13.4898 4.22449 13.4898C4.28571 13.4898 4.34694 13.5102 4.40816 13.5306C4.61224 13.6122 5.32653 13.9592 5.61225 14.7551C5.85714 15.449 5.71429 16.2449 5.22449 17.1429C4.2449 18.898 5.42857 19.6122 5.4898 19.6327C5.59184 19.6939 5.67347 19.7959 5.71429 19.9184C5.7551 20.0408 5.73469 20.1837 5.67347 20.3061C5.57143 20.449 5.36735 20.5102 5.22449 20.5102ZM17.6531 18.6939C17.4898 18.6939 17.3673 18.6327 17.2653 18.5306C17.1633 18.4286 17.102 18.2857 17.102 18.1429C17.102 17.9184 17.2449 17.7143 17.449 17.6122H17.4694V16.5102L16.4286 17.102V17.1224C16.4286 17.2857 16.3673 17.4898 16.1633 17.5918C16.0816 17.6531 15.9796 17.6735 15.8776 17.6735C15.6735 17.6735 15.4898 17.5714 15.4082 17.4082C15.3265 17.2653 15.3061 17.1224 15.3469 16.9796C15.3878 16.8367 15.4694 16.7143 15.6122 16.6531C15.6939 16.5918 15.7959 16.5714 15.8776 16.5714C15.9796 16.5714 16.0816 16.5918 16.1633 16.6531L17.102 16.1224L16.1837 15.5918C16.0612 15.6327 15.9592 15.6531 15.8776 15.6531C15.7755 15.6531 15.6939 15.6327 15.6122 15.5918C15.3673 15.4286 15.2653 15.0816 15.4082 14.8367C15.5102 14.6735 15.6939 14.5714 15.898 14.5714C16 14.5714 16.102 14.5918 16.1837 14.6531C16.3469 14.7551 16.449 14.9184 16.449 15.1224V15.1429L17.4898 15.7347V14.6327H17.4694C17.2653 14.5306 17.1224 14.3265 17.1224 14.102C17.1224 13.7959 17.3673 13.551 17.6735 13.551C17.8367 13.551 17.9796 13.6122 18.0816 13.7143C18.1837 13.8163 18.2449 13.9592 18.2449 14.102C18.2449 14.2857 18.1429 14.4694 17.9592 14.5714H17.898V15.6327L18.7959 15.1224V15.102C18.7959 14.9388 18.8571 14.7347 19.0612 14.6327C19.1429 14.5714 19.2449 14.551 19.3469 14.551C19.551 14.551 19.7347 14.6531 19.8163 14.8163C19.898 14.9592 19.9184 15.102 19.8776 15.2449C19.8367 15.3878 19.7551 15.5102 19.6122 15.5714C19.5306 15.6327 19.4286 15.6531 19.3469 15.6531C19.2449 15.6531 19.1429 15.6327 19.0612 15.5714L18.1224 16.102L19.0408 16.6327C19.1633 16.5918 19.2653 16.5714 19.3469 16.5714C19.449 16.5714 19.5306 16.5918 19.6122 16.6327C19.8571 16.7959 19.9592 17.1429 19.8163 17.3878C19.7143 17.551 19.5306 17.6531 19.3265 17.6531C19.2245 17.6531 19.1224 17.6327 19.0408 17.5714C18.8776 17.4694 18.7755 17.3061 18.7755 17.102V17.0816L17.898 16.5918V17.6531H17.9184C18.102 17.7347 18.2041 17.9184 18.2041 18.1224C18.2041 18.449 17.9592 18.6939 17.6531 18.6939ZM2.79592 12.2449C1.2449 12.2449 0 11 0 9.44898V2.79592C0 1.2449 1.2449 0 2.79592 0H21.2041C22.7551 0 24 1.2449 24 2.79592V9.44898C24 11 22.7551 12.2449 21.2041 12.2449H2.79592ZM2.5102 1.22449C1.77551 1.22449 1.18367 1.83674 1.18367 2.61225V9.71429C1.18367 10.4694 1.77551 11.102 2.5102 11.102H21.4694C22.2041 11.102 22.7959 10.4898 22.7959 9.71429V2.61225C22.7959 1.85714 22.2041 1.22449 21.4694 1.22449H2.5102ZM3.06122 9.18367C2.79592 9.18367 2.57143 8.95918 2.57143 8.69388C2.57143 8.42857 2.79592 8.20408 3.06122 8.20408H20.4694C20.7347 8.20408 20.9592 8.42857 20.9592 8.69388C20.9592 8.95918 20.7347 9.18367 20.4694 9.18367H3.06122ZM3.06122 7.12245C2.79592 7.12245 2.57143 6.89796 2.57143 6.63265C2.57143 6.36735 2.79592 6.14286 3.06122 6.14286H20.4694C20.7347 6.14286 20.9592 6.36735 20.9592 6.63265C20.9592 6.89796 20.7347 7.12245 20.4694 7.12245H3.06122Z" fill="#D9D9D9"/></g><g id="AC2" data-id="AC2" transform="translate(765, 105)"><path d="M8.29385 3.4452L8.29385 4.19558C8.29385 4.3671 8.14323 4.5061 7.95748 4.5061L2.85064 4.5061C2.66484 4.5061 2.51426 4.3671 2.51426 4.19558L2.51426 3.4452C2.51426 3.27368 2.66484 3.13467 2.85064 3.13467L7.95748 3.13467C8.14323 3.13467 8.29385 3.27368 8.29385 3.4452Z" fill="#D9D9D9"/><path d="M8.69388 21.5918C8.59184 21.5918 8.53061 21.5714 8.44898 21.5306C8.08163 21.2857 6.34694 20 7.79592 17.449C8.18367 16.7551 8.28571 16.2041 8.14286 15.7551C7.97959 15.2449 7.44898 15.0408 7.44898 15.0408C7.20408 14.9388 7.08163 14.6531 7.18367 14.4082C7.26531 14.2041 7.42857 14.0816 7.63265 14.0816C7.69388 14.0816 7.7551 14.102 7.81633 14.1224C7.89796 14.1224 8.7551 14.4898 9.10204 15.4082C9.36735 16.1429 9.22449 17 8.67347 17.9592C7.65306 19.7551 8.73469 20.551 8.95918 20.6939C9.18367 20.8163 9.26531 21.1224 9.14286 21.3673C9.02041 21.5306 8.83674 21.5918 8.69388 21.5918ZM12 20.5102C11.898 20.5102 11.8367 20.4898 11.7551 20.449C11.0204 20.0204 9.97959 18.6939 11.1429 16.6122C11.4898 15.9796 11.5918 15.4694 11.449 15.0816C11.3061 14.6327 10.8367 14.449 10.8367 14.449C10.5714 14.3469 10.449 14.0816 10.551 13.8163C10.6327 13.6122 10.7959 13.4898 11 13.4898C11.0612 13.4898 11.1224 13.5102 11.1837 13.5306C11.3878 13.6122 12.102 13.9388 12.3878 14.7551C12.6327 15.449 12.5102 16.2449 12 17.1224C11.0204 18.8776 12.2041 19.5918 12.2653 19.6122C12.3673 19.6735 12.449 19.7755 12.4898 19.898C12.5306 20.0204 12.5102 20.1633 12.449 20.2857C12.3265 20.449 12.1429 20.5102 12 20.5102ZM5.22449 20.5102C5.12245 20.5102 5.06122 20.4898 4.97959 20.449C4.2449 20.0204 3.20408 18.6939 4.36735 16.6122C4.71429 15.9796 4.81633 15.4694 4.67347 15.0816C4.53061 14.6327 4.06122 14.449 4.06122 14.449C3.79592 14.3469 3.67347 14.0816 3.77551 13.8163C3.85714 13.6122 4.02041 13.4898 4.22449 13.4898C4.28571 13.4898 4.34694 13.5102 4.40816 13.5306C4.61224 13.6122 5.32653 13.9592 5.61225 14.7551C5.85714 15.449 5.71429 16.2449 5.22449 17.1429C4.2449 18.898 5.42857 19.6122 5.4898 19.6327C5.59184 19.6939 5.67347 19.7959 5.71429 19.9184C5.7551 20.0408 5.73469 20.1837 5.67347 20.3061C5.57143 20.449 5.36735 20.5102 5.22449 20.5102ZM17.6531 18.6939C17.4898 18.6939 17.3673 18.6327 17.2653 18.5306C17.1633 18.4286 17.102 18.2857 17.102 18.1429C17.102 17.9184 17.2449 17.7143 17.449 17.6122H17.4694V16.5102L16.4286 17.102V17.1224C16.4286 17.2857 16.3673 17.4898 16.1633 17.5918C16.0816 17.6531 15.9796 17.6735 15.8776 17.6735C15.6735 17.6735 15.4898 17.5714 15.4082 17.4082C15.3265 17.2653 15.3061 17.1224 15.3469 16.9796C15.3878 16.8367 15.4694 16.7143 15.6122 16.6531C15.6939 16.5918 15.7959 16.5714 15.8776 16.5714C15.9796 16.5714 16.0816 16.5918 16.1633 16.6531L17.102 16.1224L16.1837 15.5918C16.0612 15.6327 15.9592 15.6531 15.8776 15.6531C15.7755 15.6531 15.6939 15.6327 15.6122 15.5918C15.3673 15.4286 15.2653 15.0816 15.4082 14.8367C15.5102 14.6735 15.6939 14.5714 15.898 14.5714C16 14.5714 16.102 14.5918 16.1837 14.6531C16.3469 14.7551 16.449 14.9184 16.449 15.1224V15.1429L17.4898 15.7347V14.6327H17.4694C17.2653 14.5306 17.1224 14.3265 17.1224 14.102C17.1224 13.7959 17.3673 13.551 17.6735 13.551C17.8367 13.551 17.9796 13.6122 18.0816 13.7143C18.1837 13.8163 18.2449 13.9592 18.2449 14.102C18.2449 14.2857 18.1429 14.4694 17.9592 14.5714H17.898V15.6327L18.7959 15.1224V15.102C18.7959 14.9388 18.8571 14.7347 19.0612 14.6327C19.1429 14.5714 19.2449 14.551 19.3469 14.551C19.551 14.551 19.7347 14.6531 19.8163 14.8163C19.898 14.9592 19.9184 15.102 19.8776 15.2449C19.8367 15.3878 19.7551 15.5102 19.6122 15.5714C19.5306 15.6327 19.4286 15.6531 19.3469 15.6531C19.2449 15.6531 19.1429 15.6327 19.0612 15.5714L18.1224 16.102L19.0408 16.6327C19.1633 16.5918 19.2653 16.5714 19.3469 16.5714C19.449 16.5714 19.5306 16.5918 19.6122 16.6327C19.8571 16.7959 19.9592 17.1429 19.8163 17.3878C19.7143 17.551 19.5306 17.6531 19.3265 17.6531C19.2245 17.6531 19.1224 17.6327 19.0408 17.5714C18.8776 17.4694 18.7755 17.3061 18.7755 17.102V17.0816L17.898 16.5918V17.6531H17.9184C18.102 17.7347 18.2041 17.9184 18.2041 18.1224C18.2041 18.449 17.9592 18.6939 17.6531 18.6939ZM2.79592 12.2449C1.2449 12.2449 0 11 0 9.44898V2.79592C0 1.2449 1.2449 0 2.79592 0H21.2041C22.7551 0 24 1.2449 24 2.79592V9.44898C24 11 22.7551 12.2449 21.2041 12.2449H2.79592ZM2.5102 1.22449C1.77551 1.22449 1.18367 1.83674 1.18367 2.61225V9.71429C1.18367 10.4694 1.77551 11.102 2.5102 11.102H21.4694C22.2041 11.102 22.7959 10.4898 22.7959 9.71429V2.61225C22.7959 1.85714 22.2041 1.22449 21.4694 1.22449H2.5102ZM3.06122 9.18367C2.79592 9.18367 2.57143 8.95918 2.57143 8.69388C2.57143 8.42857 2.79592 8.20408 3.06122 8.20408H20.4694C20.7347 8.20408 20.9592 8.42857 20.9592 8.69388C20.9592 8.95918 20.7347 9.18367 20.4694 9.18367H3.06122ZM3.06122 7.12245C2.79592 7.12245 2.57143 6.89796 2.57143 6.63265C2.57143 6.36735 2.79592 6.14286 3.06122 6.14286H20.4694C20.7347 6.14286 20.9592 6.36735 20.9592 6.63265C20.9592 6.89796 20.7347 7.12245 20.4694 7.12245H3.06122Z" fill="#D9D9D9"/></g><g id="L1" data-id="L1" transform="translate(105, 105)"><path d="M5.72663 10.4932C8.48806 10.4932 10.7266 8.2546 10.7266 5.49317C10.7266 2.73175 8.48806 0.493164 5.72663 0.493164C2.96521 0.493164 0.726562 2.73175 0.726562 5.49317C0.726562 8.2546 2.96521 10.4932 5.72663 10.4932Z" fill="#FFBB00" stroke="#FFBB00" stroke-width="0.861" stroke-miterlimit="10"/></g><g id="L2" data-id="L2" transform="translate(105, 205)"><path d="M5.72663 10.4932C8.48806 10.4932 10.7266 8.2546 10.7266 5.49317C10.7266 2.73175 8.48806 0.493164 5.72663 0.493164C2.96521 0.493164 0.726562 2.73175 0.726562 5.49317C0.726562 8.2546 2.96521 10.4932 5.72663 10.4932Z" fill="#FFBB00" stroke="#FFBB00" stroke-width="0.861" stroke-miterlimit="10"/></g><g id="L3" data-id="L3" transform="translate(105, 305)"><path d="M5.72663 10.4932C8.48806 10.4932 10.7266 8.2546 10.7266 5.49317C10.7266 2.73175 8.48806 0.493164 5.72663 0.493164C2.96521 0.493164 0.726562 2.73175 0.726562 5.49317C0.726562 8.2546 2.96521 10.4932 5.72663 10.4932Z" fill="#FFBB00" stroke="#FFBB00" stroke-width="0.861" stroke-miterlimit="10"/></g><g id="L4" data-id="L4" transform="translate(105, 405)"><path d="M5.72663 10.4932C8.48806 10.4932 10.7266 8.2546 10.7266 5.49317C10.7266 2.73175 8.48806 0.493164 5.72663 0.493164C2.96521 0.493164 0.726562 2.73175 0.726562 5.49317C0.726562 8.2546 2.96521 10.4932 5.72663 10.4932Z" fill="#FFBB00" stroke="#FFBB00" stroke-width="0.861" stroke-miterlimit="10"/></g><g id="L5" data-id="L5" transform="translate(225, 105)"><path d="M5.72663 10.4932C8.48806 10.4932 10.7266 8.2546 10.7266 5.49317C10.7266 2.73175 8.48806 0.493164 5.72663 0.493164C2.96521 0.493164 0.726562 2.73175 0.726562 5.49317C0.726562 8.2546 2.96521 10.4932 5.72663 10.4932Z" fill="#FFBB00" stroke="#FFBB00" stroke-width="0.861" stroke-miterlimit="10"/></g><g id="L6" data-id="L6" transform="translate(225, 205)"><path d="M5.72663 10.4932C8.48806 10.4932 10.7266 8.2546 10.7266 5.49317C10.7266 2.73175 8.48806 0.493164 5.72663 0.493164C2.96521 0.493164 0.726562 2.73175 0.726562 5.49317C0.726562 8.2546 2.96521 10.4932 5.72663 10.4932Z" fill="#FFBB00" stroke="#FFBB00" stroke-width="0.861" stroke-miterlimit="10"/></g><g id="L7" data-id="L7" transform="translate(225, 305)"><path d="M5.72663 10.4932C8.48806 10.4932 10.7266 8.2546 10.7266 5.49317C10.7266 2.73175 8.48806 0.493164 5.72663 0.493164C2.96521 0.493164 0.726562 2.73175 0.726562 5.49317C0.726562 8.2546 2.96521 10.4932 5.72663 10.4932Z" fill="#FFBB00" stroke="#FFBB00" stroke-width="0.861" stroke-miterlimit="10"/></g><g id="L8" data-id="L8" transform="translate(225, 405)"><path d="M5.72663 10.4932C8.48806 10.4932 10.7266 8.2546 10.7266 5.49317C10.7266 2.73175 8.48806 0.493164 5.72663 0.493164C2.96521 0.493164 0.726562 2.73175 0.726562 5.49317C0.726562 8.2546 2.96521 10.4932 5.72663 10.4932Z" fill="#FFBB00" stroke="#FFBB00" stroke-width="0.861" stroke-miterlimit="10"/></g><g id="L9" data-id="L9" transform="translate(365, 105)"><path d="M5.72663 10.4932C8.48806 10.4932 10.7266 8.2546 10.7266 5.49317C10.7266 2.73175 8.48806 0.493164 5.72663 0.493164C2.96521 0.493164 0.726562 2.73175 0.726562 5.49317C0.726562 8.2546 2.96521 10.4932 5.72663 10.4932Z" fill="#FFBB00" stroke="#FFBB00" stroke-width="0.861" stroke-miterlimit="10"/></g><g id="L10" data-id="L10" transform="translate(365, 205)"><path d="M5.72663 10.4932C8.48806 10.4932 10.7266 8.2546 10.7266 5.49317C10.7266 2.73175 8.48806 0.493164 5.72663 0.493164C2.96521 0.493164 0.726562 2.73175 0.726562 5.49317C0.726562 8.2546 2.96521 10.4932 5.72663 10.4932Z" fill="#FFBB00" stroke="#FFBB00" stroke-width="0.861" stroke-miterlimit="10"/></g><g id="L11" data-id="L11" transform="translate(365, 305)"><path d="M5.72663 10.4932C8.48806 10.4932 10.7266 8.2546 10.7266 5.49317C10.7266 2.73175 8.48806 0.493164 5.72663 0.493164C2.96521 0.493164 0.726562 2.73175 0.726562 5.49317C0.726562 8.2546 2.96521 10.4932 5.72663 10.4932Z" fill="#FFBB00" stroke="#FFBB00" stroke-width="0.861" stroke-miterlimit="10"/></g><g id="L12" data-id="L12" transform="translate(365, 405)"><path d="M5.72663 10.4932C8.48806 10.4932 10.7266 8.2546 10.7266 5.49317C10.7266 2.73175 8.48806 0.493164 5.72663 0.493164C2.96521 0.493164 0.726562 2.73175 0.726562 5.49317C0.726562 8.2546 2.96521 10.4932 5.72663 10.4932Z" fill="#FFBB00" stroke="#FFBB00" stroke-width="0.861" stroke-miterlimit="10"/></g><g id="L13" data-id="L13" transform="translate(485, 105)"><path d="M5.72663 10.4932C8.48806 10.4932 10.7266 8.2546 10.7266 5.49317C10.7266 2.73175 8.48806 0.493164 5.72663 0.493164C2.96521 0.493164 0.726562 2.73175 0.726562 5.49317C0.726562 8.2546 2.96521 10.4932 5.72663 10.4932Z" fill="#FFBB00" stroke="#FFBB00" stroke-width="0.861" stroke-miterlimit="10"/></g><g id="L14" data-id="L14" transform="translate(485, 205)"><path d="M5.72663 10.4932C8.48806 10.4932 10.7266 8.2546 10.7266 5.49317C10.7266 2.73175 8.48806 0.493164 5.72663 0.493164C2.96521 0.493164 0.726562 2.73175 0.726562 5.49317C0.726562 8.2546 2.96521 10.4932 5.72663 10.4932Z" fill="#FFBB00" stroke="#FFBB00" stroke-width="0.861" stroke-miterlimit="10"/></g><g id="L15" data-id="L15" transform="translate(485, 305)"><path d="M5.72663 10.4932C8.48806 10.4932 10.7266 8.2546 10.7266 5.49317C10.7266 2.73175 8.48806 0.493164 5.72663 0.493164C2.96521 0.493164 0.726562 2.73175 0.726562 5.49317C0.726562 8.2546 2.96521 10.4932 5.72663 10.4932Z" fill="#FFBB00" stroke="#FFBB00" stroke-width="0.861" stroke-miterlimit="10"/></g><g id="L16" data-id="L16" transform="translate(485, 405)"><path d="M5.72663 10.4932C8.48806 10.4932 10.7266 8.2546 10.7266 5.49317C10.7266 2.73175 8.48806 0.493164 5.72663 0.493164C2.96521 0.493164 0.726562 2.73175 0.726562 5.49317C0.726562 8.2546 2.96521 10.4932 5.72663 10.4932Z" fill="#FFBB00" stroke="#FFBB00" stroke-width="0.861" stroke-miterlimit="10"/></g><g id="L18" data-id="L18" transform="translate(605, 105)"><path d="M5.72663 10.4932C8.48806 10.4932 10.7266 8.2546 10.7266 5.49317C10.7266 2.73175 8.48806 0.493164 5.72663 0.493164C2.96521 0.493164 0.726562 2.73175 0.726562 5.49317C0.726562 8.2546 2.96521 10.4932 5.72663 10.4932Z" fill="#FFBB00" stroke="#FFBB00" stroke-width="0.861" stroke-miterlimit="10"/></g><g id="L19" data-id="L19" transform="translate(605, 305)"><path d="M5.72663 10.4932C8.48806 10.4932 10.7266 8.2546 10.7266 5.49317C10.7266 2.73175 8.48806 0.493164 5.72663 0.493164C2.96521 0.493164 0.726562 2.73175 0.726562 5.49317C0.726562 8.2546 2.96521 10.4932 5.72663 10.4932Z" fill="#FFBB00" stroke="#FFBB00" stroke-width="0.861" stroke-miterlimit="10"/></g><g id="L17" data-id="L17" transform="translate(605, 205)"><path d="M5.72663 10.4932C8.48806 10.4932 10.7266 8.2546 10.7266 5.49317C10.7266 2.73175 8.48806 0.493164 5.72663 0.493164C2.96521 0.493164 0.726562 2.73175 0.726562 5.49317C0.726562 8.2546 2.96521 10.4932 5.72663 10.4932Z" fill="#FFBB00" stroke="#FFBB00" stroke-width="0.861" stroke-miterlimit="10"/></g><g id="L20" data-id="L20" transform="translate(605, 405)"><path d="M5.72663 10.4932C8.48806 10.4932 10.7266 8.2546 10.7266 5.49317C10.7266 2.73175 8.48806 0.493164 5.72663 0.493164C2.96521 0.493164 0.726562 2.73175 0.726562 5.49317C0.726562 8.2546 2.96521 10.4932 5.72663 10.4932Z" fill="#FFBB00" stroke="#FFBB00" stroke-width="0.861" stroke-miterlimit="10"/></g><g id="L21" data-id="L21" transform="translate(725, 105)"><path d="M5.72663 10.4932C8.48806 10.4932 10.7266 8.2546 10.7266 5.49317C10.7266 2.73175 8.48806 0.493164 5.72663 0.493164C2.96521 0.493164 0.726562 2.73175 0.726562 5.49317C0.726562 8.2546 2.96521 10.4932 5.72663 10.4932Z" fill="#FFBB00" stroke="#FFBB00" stroke-width="0.861" stroke-miterlimit="10"/></g><g id="L22" data-id="L22" transform="translate(725, 205)"><path d="M5.72663 10.4932C8.48806 10.4932 10.7266 8.2546 10.7266 5.49317C10.7266 2.73175 8.48806 0.493164 5.72663 0.493164C2.96521 0.493164 0.726562 2.73175 0.726562 5.49317C0.726562 8.2546 2.96521 10.4932 5.72663 10.4932Z" fill="#FFBB00" stroke="#FFBB00" stroke-width="0.861" stroke-miterlimit="10"/></g><g id="L23" data-id="L23" transform="translate(725, 305)"><path d="M5.72663 10.4932C8.48806 10.4932 10.7266 8.2546 10.7266 5.49317C10.7266 2.73175 8.48806 0.493164 5.72663 0.493164C2.96521 0.493164 0.726562 2.73175 0.726562 5.49317C0.726562 8.2546 2.96521 10.4932 5.72663 10.4932Z" fill="#FFBB00" stroke="#FFBB00" stroke-width="0.861" stroke-miterlimit="10"/></g><g id="L24" data-id="L24" transform="translate(725, 405)"><path d="M5.72663 10.4932C8.48806 10.4932 10.7266 8.2546 10.7266 5.49317C10.7266 2.73175 8.48806 0.493164 5.72663 0.493164C2.96521 0.493164 0.726562 2.73175 0.726562 5.49317C0.726562 8.2546 2.96521 10.4932 5.72663 10.4932Z" fill="#FFBB00" stroke="#FFBB00" stroke-width="0.861" stroke-miterlimit="10"/></g><g id="L25" data-id="L25" transform="translate(545, 165)"><path d="M5.72663 10.4932C8.48806 10.4932 10.7266 8.2546 10.7266 5.49317C10.7266 2.73175 8.48806 0.493164 5.72663 0.493164C2.96521 0.493164 0.726562 2.73175 0.726562 5.49317C0.726562 8.2546 2.96521 10.4932 5.72663 10.4932Z" fill="#FFBB00" stroke="#FFBB00" stroke-width="0.861" stroke-miterlimit="10"/></g><g id="L26" data-id="L26" transform="translate(545, 325)"><path d="M5.72663 10.4932C8.48806 10.4932 10.7266 8.2546 10.7266 5.49317C10.7266 2.73175 8.48806 0.493164 5.72663 0.493164C2.96521 0.493164 0.726562 2.73175 0.726562 5.49317C0.726562 8.2546 2.96521 10.4932 5.72663 10.4932Z" fill="#FFBB00" stroke="#FFBB00" stroke-width="0.861" stroke-miterlimit="10"/></g><g id="DF7" data-id="DF7" transform="translate(425, 245)"><path d="M5.72663 10.4932C8.48806 10.4932 10.7266 8.2546 10.7266 5.49317C10.7266 2.73175 8.48806 0.493164 5.72663 0.493164C2.96521 0.493164 0.726562 2.73175 0.726562 5.49317C0.726562 8.2546 2.96521 10.4932 5.72663 10.4932Z" fill="rgba(6, 145, 244, 0.83)" stroke="rgba(6, 145, 244, 0.83)" stroke-width="0.861" stroke-miterlimit="10"/></g><g id="DF8" data-id="DF8" transform="translate(545, 245)"><path d="M5.72663 10.4932C8.48806 10.4932 10.7266 8.2546 10.7266 5.49317C10.7266 2.73175 8.48806 0.493164 5.72663 0.493164C2.96521 0.493164 0.726562 2.73175 0.726562 5.49317C0.726562 8.2546 2.96521 10.4932 5.72663 10.4932Z" fill="rgba(6, 145, 244, 0.83)" stroke="rgba(6, 145, 244, 0.83)" stroke-width="0.861" stroke-miterlimit="10"/></g><g id="DF9" data-id="DF9" transform="translate(665, 245)"><path d="M5.72663 10.4932C8.48806 10.4932 10.7266 8.2546 10.7266 5.49317C10.7266 2.73175 8.48806 0.493164 5.72663 0.493164C2.96521 0.493164 0.726562 2.73175 0.726562 5.49317C0.726562 8.2546 2.96521 10.4932 5.72663 10.4932Z" fill="rgba(6, 145, 244, 0.83)" stroke="rgba(6, 145, 244, 0.83)" stroke-width="0.861" stroke-miterlimit="10"/></g><g id="S1" data-id="S1" transform="translate(225, 65)"><path fill-rule="evenodd" clip-rule="evenodd" d="M3.47826 0.521973C1.55727 0.521973 0 2.07924 0 4.00023C0 5.92123 1.55727 7.4785 3.47826 7.4785L28.5217 7.4785C30.4427 7.4785 32 5.92123 32 4.00023C32 2.07924 30.4427 0.521973 28.5217 0.521973L3.47826 0.521973ZM4.86821 6.08749C6.0208 6.08749 6.95516 5.15313 6.95516 4.00053C6.95516 2.84794 6.0208 1.91357 4.86821 1.91357C3.71561 1.91357 2.78125 2.84794 2.78125 4.00053C2.78125 5.15313 3.71561 6.08749 4.86821 6.08749ZM12.5216 4.00067C12.5216 5.15326 11.5872 6.08763 10.4346 6.08763C9.28202 6.08763 8.34766 5.15326 8.34766 4.00067C8.34766 2.84808 9.28202 1.91371 10.4346 1.91371C11.5872 1.91371 12.5216 2.84808 12.5216 4.00067ZM16.001 6.08749C17.1536 6.08749 18.088 5.15313 18.088 4.00053C18.088 2.84794 17.1536 1.91357 16.001 1.91357C14.8484 1.91357 13.9141 2.84794 13.9141 4.00053C13.9141 5.15313 14.8484 6.08749 16.001 6.08749ZM23.6505 4.00065C23.6505 5.15325 22.7161 6.08761 21.5635 6.08761C20.4109 6.08761 19.4766 5.15325 19.4766 4.00065C19.4766 2.84806 20.4109 1.9137 21.5635 1.9137C22.7161 1.9137 23.6505 2.84806 23.6505 4.00065ZM27.1299 6.08763C28.2825 6.08763 29.2169 5.15326 29.2169 4.00067C29.2169 2.84808 28.2825 1.91371 27.1299 1.91371C25.9773 1.91371 25.043 2.84808 25.043 4.00067C25.043 5.15326 25.9773 6.08763 27.1299 6.08763Z" fill="#FFBB00"/></g><g id="S2" data-id="S2" transform="translate(425, 65)"><path fill-rule="evenodd" clip-rule="evenodd" d="M3.47826 0.521973C1.55727 0.521973 0 2.07924 0 4.00023C0 5.92123 1.55727 7.4785 3.47826 7.4785L28.5217 7.4785C30.4427 7.4785 32 5.92123 32 4.00023C32 2.07924 30.4427 0.521973 28.5217 0.521973L3.47826 0.521973ZM4.86821 6.08749C6.0208 6.08749 6.95516 5.15313 6.95516 4.00053C6.95516 2.84794 6.0208 1.91357 4.86821 1.91357C3.71561 1.91357 2.78125 2.84794 2.78125 4.00053C2.78125 5.15313 3.71561 6.08749 4.86821 6.08749ZM12.5216 4.00067C12.5216 5.15326 11.5872 6.08763 10.4346 6.08763C9.28202 6.08763 8.34766 5.15326 8.34766 4.00067C8.34766 2.84808 9.28202 1.91371 10.4346 1.91371C11.5872 1.91371 12.5216 2.84808 12.5216 4.00067ZM16.001 6.08749C17.1536 6.08749 18.088 5.15313 18.088 4.00053C18.088 2.84794 17.1536 1.91357 16.001 1.91357C14.8484 1.91357 13.9141 2.84794 13.9141 4.00053C13.9141 5.15313 14.8484 6.08749 16.001 6.08749ZM23.6505 4.00065C23.6505 5.15325 22.7161 6.08761 21.5635 6.08761C20.4109 6.08761 19.4766 5.15325 19.4766 4.00065C19.4766 2.84806 20.4109 1.9137 21.5635 1.9137C22.7161 1.9137 23.6505 2.84806 23.6505 4.00065ZM27.1299 6.08763C28.2825 6.08763 29.2169 5.15326 29.2169 4.00067C29.2169 2.84808 28.2825 1.91371 27.1299 1.91371C25.9773 1.91371 25.043 2.84808 25.043 4.00067C25.043 5.15326 25.9773 6.08763 27.1299 6.08763Z" fill="#FFBB00"/></g><g id="S3" data-id="S3" transform="translate(645, 65)"><path fill-rule="evenodd" clip-rule="evenodd" d="M3.47826 0.521973C1.55727 0.521973 0 2.07924 0 4.00023C0 5.92123 1.55727 7.4785 3.47826 7.4785L28.5217 7.4785C30.4427 7.4785 32 5.92123 32 4.00023C32 2.07924 30.4427 0.521973 28.5217 0.521973L3.47826 0.521973ZM4.86821 6.08749C6.0208 6.08749 6.95516 5.15313 6.95516 4.00053C6.95516 2.84794 6.0208 1.91357 4.86821 1.91357C3.71561 1.91357 2.78125 2.84794 2.78125 4.00053C2.78125 5.15313 3.71561 6.08749 4.86821 6.08749ZM12.5216 4.00067C12.5216 5.15326 11.5872 6.08763 10.4346 6.08763C9.28202 6.08763 8.34766 5.15326 8.34766 4.00067C8.34766 2.84808 9.28202 1.91371 10.4346 1.91371C11.5872 1.91371 12.5216 2.84808 12.5216 4.00067ZM16.001 6.08749C17.1536 6.08749 18.088 5.15313 18.088 4.00053C18.088 2.84794 17.1536 1.91357 16.001 1.91357C14.8484 1.91357 13.9141 2.84794 13.9141 4.00053C13.9141 5.15313 14.8484 6.08749 16.001 6.08749ZM23.6505 4.00065C23.6505 5.15325 22.7161 6.08761 21.5635 6.08761C20.4109 6.08761 19.4766 5.15325 19.4766 4.00065C19.4766 2.84806 20.4109 1.9137 21.5635 1.9137C22.7161 1.9137 23.6505 2.84806 23.6505 4.00065ZM27.1299 6.08763C28.2825 6.08763 29.2169 5.15326 29.2169 4.00067C29.2169 2.84808 28.2825 1.91371 27.1299 1.91371C25.9773 1.91371 25.043 2.84808 25.043 4.00067C25.043 5.15326 25.9773 6.08763 27.1299 6.08763Z" fill="#FFBB00"/></g><g id="S4" data-id="S4" transform="translate(765, 165)"><path fill-rule="evenodd" clip-rule="evenodd" d="M3.47826 0.521973C1.55727 0.521973 0 2.07924 0 4.00023C0 5.92123 1.55727 7.4785 3.47826 7.4785L28.5217 7.4785C30.4427 7.4785 32 5.92123 32 4.00023C32 2.07924 30.4427 0.521973 28.5217 0.521973L3.47826 0.521973ZM4.86821 6.08749C6.0208 6.08749 6.95516 5.15313 6.95516 4.00053C6.95516 2.84794 6.0208 1.91357 4.86821 1.91357C3.71561 1.91357 2.78125 2.84794 2.78125 4.00053C2.78125 5.15313 3.71561 6.08749 4.86821 6.08749ZM12.5216 4.00067C12.5216 5.15326 11.5872 6.08763 10.4346 6.08763C9.28202 6.08763 8.34766 5.15326 8.34766 4.00067C8.34766 2.84808 9.28202 1.91371 10.4346 1.91371C11.5872 1.91371 12.5216 2.84808 12.5216 4.00067ZM16.001 6.08749C17.1536 6.08749 18.088 5.15313 18.088 4.00053C18.088 2.84794 17.1536 1.91357 16.001 1.91357C14.8484 1.91357 13.9141 2.84794 13.9141 4.00053C13.9141 5.15313 14.8484 6.08749 16.001 6.08749ZM23.6505 4.00065C23.6505 5.15325 22.7161 6.08761 21.5635 6.08761C20.4109 6.08761 19.4766 5.15325 19.4766 4.00065C19.4766 2.84806 20.4109 1.9137 21.5635 1.9137C22.7161 1.9137 23.6505 2.84806 23.6505 4.00065ZM27.1299 6.08763C28.2825 6.08763 29.2169 5.15326 29.2169 4.00067C29.2169 2.84808 28.2825 1.91371 27.1299 1.91371C25.9773 1.91371 25.043 2.84808 25.043 4.00067C25.043 5.15326 25.9773 6.08763 27.1299 6.08763Z" fill="#FFBB00"/></g><g id="S5" data-id="S5" transform="translate(765, 285)"><path fill-rule="evenodd" clip-rule="evenodd" d="M3.47826 0.521973C1.55727 0.521973 0 2.07924 0 4.00023C0 5.92123 1.55727 7.4785 3.47826 7.4785L28.5217 7.4785C30.4427 7.4785 32 5.92123 32 4.00023C32 2.07924 30.4427 0.521973 28.5217 0.521973L3.47826 0.521973ZM4.86821 6.08749C6.0208 6.08749 6.95516 5.15313 6.95516 4.00053C6.95516 2.84794 6.0208 1.91357 4.86821 1.91357C3.71561 1.91357 2.78125 2.84794 2.78125 4.00053C2.78125 5.15313 3.71561 6.08749 4.86821 6.08749ZM12.5216 4.00067C12.5216 5.15326 11.5872 6.08763 10.4346 6.08763C9.28202 6.08763 8.34766 5.15326 8.34766 4.00067C8.34766 2.84808 9.28202 1.91371 10.4346 1.91371C11.5872 1.91371 12.5216 2.84808 12.5216 4.00067ZM16.001 6.08749C17.1536 6.08749 18.088 5.15313 18.088 4.00053C18.088 2.84794 17.1536 1.91357 16.001 1.91357C14.8484 1.91357 13.9141 2.84794 13.9141 4.00053C13.9141 5.15313 14.8484 6.08749 16.001 6.08749ZM23.6505 4.00065C23.6505 5.15325 22.7161 6.08761 21.5635 6.08761C20.4109 6.08761 19.4766 5.15325 19.4766 4.00065C19.4766 2.84806 20.4109 1.9137 21.5635 1.9137C22.7161 1.9137 23.6505 2.84806 23.6505 4.00065ZM27.1299 6.08763C28.2825 6.08763 29.2169 5.15326 29.2169 4.00067C29.2169 2.84808 28.2825 1.91371 27.1299 1.91371C25.9773 1.91371 25.043 2.84808 25.043 4.00067C25.043 5.15326 25.9773 6.08763 27.1299 6.08763Z" fill="#FFBB00"/></g><g id="S6" data-id="S6" transform="translate(545, 445)"><path fill-rule="evenodd" clip-rule="evenodd" d="M3.47826 0.521973C1.55727 0.521973 0 2.07924 0 4.00023C0 5.92123 1.55727 7.4785 3.47826 7.4785L28.5217 7.4785C30.4427 7.4785 32 5.92123 32 4.00023C32 2.07924 30.4427 0.521973 28.5217 0.521973L3.47826 0.521973ZM4.86821 6.08749C6.0208 6.08749 6.95516 5.15313 6.95516 4.00053C6.95516 2.84794 6.0208 1.91357 4.86821 1.91357C3.71561 1.91357 2.78125 2.84794 2.78125 4.00053C2.78125 5.15313 3.71561 6.08749 4.86821 6.08749ZM12.5216 4.00067C12.5216 5.15326 11.5872 6.08763 10.4346 6.08763C9.28202 6.08763 8.34766 5.15326 8.34766 4.00067C8.34766 2.84808 9.28202 1.91371 10.4346 1.91371C11.5872 1.91371 12.5216 2.84808 12.5216 4.00067ZM16.001 6.08749C17.1536 6.08749 18.088 5.15313 18.088 4.00053C18.088 2.84794 17.1536 1.91357 16.001 1.91357C14.8484 1.91357 13.9141 2.84794 13.9141 4.00053C13.9141 5.15313 14.8484 6.08749 16.001 6.08749ZM23.6505 4.00065C23.6505 5.15325 22.7161 6.08761 21.5635 6.08761C20.4109 6.08761 19.4766 5.15325 19.4766 4.00065C19.4766 2.84806 20.4109 1.9137 21.5635 1.9137C22.7161 1.9137 23.6505 2.84806 23.6505 4.00065ZM27.1299 6.08763C28.2825 6.08763 29.2169 5.15326 29.2169 4.00067C29.2169 2.84808 28.2825 1.91371 27.1299 1.91371C25.9773 1.91371 25.043 2.84808 25.043 4.00067C25.043 5.15326 25.9773 6.08763 27.1299 6.08763Z" fill="#FFBB00"/></g><g id="S7" data-id="S7" transform="translate(205, 445)"><path fill-rule="evenodd" clip-rule="evenodd" d="M3.47826 0.521973C1.55727 0.521973 0 2.07924 0 4.00023C0 5.92123 1.55727 7.4785 3.47826 7.4785L28.5217 7.4785C30.4427 7.4785 32 5.92123 32 4.00023C32 2.07924 30.4427 0.521973 28.5217 0.521973L3.47826 0.521973ZM4.86821 6.08749C6.0208 6.08749 6.95516 5.15313 6.95516 4.00053C6.95516 2.84794 6.0208 1.91357 4.86821 1.91357C3.71561 1.91357 2.78125 2.84794 2.78125 4.00053C2.78125 5.15313 3.71561 6.08749 4.86821 6.08749ZM12.5216 4.00067C12.5216 5.15326 11.5872 6.08763 10.4346 6.08763C9.28202 6.08763 8.34766 5.15326 8.34766 4.00067C8.34766 2.84808 9.28202 1.91371 10.4346 1.91371C11.5872 1.91371 12.5216 2.84808 12.5216 4.00067ZM16.001 6.08749C17.1536 6.08749 18.088 5.15313 18.088 4.00053C18.088 2.84794 17.1536 1.91357 16.001 1.91357C14.8484 1.91357 13.9141 2.84794 13.9141 4.00053C13.9141 5.15313 14.8484 6.08749 16.001 6.08749ZM23.6505 4.00065C23.6505 5.15325 22.7161 6.08761 21.5635 6.08761C20.4109 6.08761 19.4766 5.15325 19.4766 4.00065C19.4766 2.84806 20.4109 1.9137 21.5635 1.9137C22.7161 1.9137 23.6505 2.84806 23.6505 4.00065ZM27.1299 6.08763C28.2825 6.08763 29.2169 5.15326 29.2169 4.00067C29.2169 2.84808 28.2825 1.91371 27.1299 1.91371C25.9773 1.91371 25.043 2.84808 25.043 4.00067C25.043 5.15326 25.9773 6.08763 27.1299 6.08763Z" fill="#FFBB00"/></g><g id="CF1" data-id="CF1" transform="translate(665, 85)"><path d="M7.2 4V6.4H10.8V12.724C10.056 13.156 9.6 13.948 9.6 14.8V16H14.4V14.8C14.4 13.948 13.944 13.156 13.2 12.724V6.4H16.8V4H7.2ZM4.8 14.8C2.148 14.8 0 15.604 0 16.6C0 17.596 2.148 18.4 4.8 18.4C7.452 18.4 9.6 17.596 9.6 16.6C9.6 15.604 7.452 14.8 4.8 14.8ZM19.2 14.8C16.548 14.8 14.4 15.604 14.4 16.6C14.4 17.596 16.548 18.4 19.2 18.4C21.852 18.4 24 17.596 24 16.6C24 15.604 21.852 14.8 19.2 14.8ZM9.6 17.2V18.4C9.6 19.264 10.056 20.056 10.8 20.476C11.544 20.908 12.456 20.908 13.2 20.476C13.944 20.056 14.4 19.252 14.4 18.4V17.2H9.6Z" fill="#D9D9D9"/></g><g id="CF2" data-id="CF2" transform="translate(665, 405)"><path d="M7.2 4V6.4H10.8V12.724C10.056 13.156 9.6 13.948 9.6 14.8V16H14.4V14.8C14.4 13.948 13.944 13.156 13.2 12.724V6.4H16.8V4H7.2ZM4.8 14.8C2.148 14.8 0 15.604 0 16.6C0 17.596 2.148 18.4 4.8 18.4C7.452 18.4 9.6 17.596 9.6 16.6C9.6 15.604 7.452 14.8 4.8 14.8ZM19.2 14.8C16.548 14.8 14.4 15.604 14.4 16.6C14.4 17.596 16.548 18.4 19.2 18.4C21.852 18.4 24 17.596 24 16.6C24 15.604 21.852 14.8 19.2 14.8ZM9.6 17.2V18.4C9.6 19.264 10.056 20.056 10.8 20.476C11.544 20.908 12.456 20.908 13.2 20.476C13.944 20.056 14.4 19.252 14.4 18.4V17.2H9.6Z" fill="#D9D9D9"/></g><g id="CF3" data-id="CF3" transform="translate(425, 85)"><path d="M7.2 4V6.4H10.8V12.724C10.056 13.156 9.6 13.948 9.6 14.8V16H14.4V14.8C14.4 13.948 13.944 13.156 13.2 12.724V6.4H16.8V4H7.2ZM4.8 14.8C2.148 14.8 0 15.604 0 16.6C0 17.596 2.148 18.4 4.8 18.4C7.452 18.4 9.6 17.596 9.6 16.6C9.6 15.604 7.452 14.8 4.8 14.8ZM19.2 14.8C16.548 14.8 14.4 15.604 14.4 16.6C14.4 17.596 16.548 18.4 19.2 18.4C21.852 18.4 24 17.596 24 16.6C24 15.604 21.852 14.8 19.2 14.8ZM9.6 17.2V18.4C9.6 19.264 10.056 20.056 10.8 20.476C11.544 20.908 12.456 20.908 13.2 20.476C13.944 20.056 14.4 19.252 14.4 18.4V17.2H9.6Z" fill="#D9D9D9"/></g><g id="CF4" data-id="CF4" transform="translate(425, 405)"><path d="M7.2 4V6.4H10.8V12.724C10.056 13.156 9.6 13.948 9.6 14.8V16H14.4V14.8C14.4 13.948 13.944 13.156 13.2 12.724V6.4H16.8V4H7.2ZM4.8 14.8C2.148 14.8 0 15.604 0 16.6C0 17.596 2.148 18.4 4.8 18.4C7.452 18.4 9.6 17.596 9.6 16.6C9.6 15.604 7.452 14.8 4.8 14.8ZM19.2 14.8C16.548 14.8 14.4 15.604 14.4 16.6C14.4 17.596 16.548 18.4 19.2 18.4C21.852 18.4 24 17.596 24 16.6C24 15.604 21.852 14.8 19.2 14.8ZM9.6 17.2V18.4C9.6 19.264 10.056 20.056 10.8 20.476C11.544 20.908 12.456 20.908 13.2 20.476C13.944 20.056 14.4 19.252 14.4 18.4V17.2H9.6Z" fill="#D9D9D9"/></g><g id="CF5" data-id="CF5" transform="translate(165, 85)"><path d="M7.2 4V6.4H10.8V12.724C10.056 13.156 9.6 13.948 9.6 14.8V16H14.4V14.8C14.4 13.948 13.944 13.156 13.2 12.724V6.4H16.8V4H7.2ZM4.8 14.8C2.148 14.8 0 15.604 0 16.6C0 17.596 2.148 18.4 4.8 18.4C7.452 18.4 9.6 17.596 9.6 16.6C9.6 15.604 7.452 14.8 4.8 14.8ZM19.2 14.8C16.548 14.8 14.4 15.604 14.4 16.6C14.4 17.596 16.548 18.4 19.2 18.4C21.852 18.4 24 17.596 24 16.6C24 15.604 21.852 14.8 19.2 14.8ZM9.6 17.2V18.4C9.6 19.264 10.056 20.056 10.8 20.476C11.544 20.908 12.456 20.908 13.2 20.476C13.944 20.056 14.4 19.252 14.4 18.4V17.2H9.6Z" fill="#D9D9D9"/></g><g id="CF6" data-id="CF6" transform="translate(165, 405)"><path d="M7.2 4V6.4H10.8V12.724C10.056 13.156 9.6 13.948 9.6 14.8V16H14.4V14.8C14.4 13.948 13.944 13.156 13.2 12.724V6.4H16.8V4H7.2ZM4.8 14.8C2.148 14.8 0 15.604 0 16.6C0 17.596 2.148 18.4 4.8 18.4C7.452 18.4 9.6 17.596 9.6 16.6C9.6 15.604 7.452 14.8 4.8 14.8ZM19.2 14.8C16.548 14.8 14.4 15.604 14.4 16.6C14.4 17.596 16.548 18.4 19.2 18.4C21.852 18.4 24 17.596 24 16.6C24 15.604 21.852 14.8 19.2 14.8ZM9.6 17.2V18.4C9.6 19.264 10.056 20.056 10.8 20.476C11.544 20.908 12.456 20.908 13.2 20.476C13.944 20.056 14.4 19.252 14.4 18.4V17.2H9.6Z" fill="#D9D9D9"/></g><g id="RT1" data-id="RT1" transform="translate(485, 245)"><path d="M1.09766 39.2701L1.09766 2.7299C1.09766 1.77541 1.37154 1 1.70983 1L80.4855 1C80.8232 1 81.0977 1.77367 81.0977 2.7299V39.2701C81.0977 40.2246 80.8238 41 80.4855 41L1.70983 41C1.37212 41 1.09766 40.2263 1.09766 39.2701Z" stroke="#666666" stroke-width="0.2.8" stroke-miterlimit="2.622"/></g><g id="C1" data-id="C1" transform="translate(305, 125)"><path d="M4.41079 0.518676V0.533096C4.5564 0.502238 4.71648 0.536962 4.83702 0.650752L5.91995 1.67199C6.02506 1.77131 6.06654 1.91882 6.02314 2.05768C5.85632 2.58998 5.44068 4.08759 5.14656 6.53697C5.18321 6.46753 5.21118 6.39231 5.24976 6.32384L5.94021 6.84844C6.11861 6.98248 6.37318 6.94197 6.49758 6.75586L7.08774 5.88318C7.19671 5.72117 7.16874 5.50322 7.0212 5.374L6.31533 4.75588C8.28736 2.35472 11.2787 0.820497 14.6249 0.820497H22.3703C23.8216 0.820497 25 1.99889 25 3.45019V20.8562C25 22.3075 23.8216 23.4858 22.3703 23.4858H14.6249C11.2787 23.4858 8.28833 21.9526 6.3163 19.5524L7.0212 18.9352C7.16874 18.806 7.19671 18.5881 7.08774 18.4261L6.49758 17.5534C6.37318 17.3682 6.11861 17.3267 5.94021 17.4608L5.25071 17.9844C5.21214 17.915 5.18417 17.8398 5.14656 17.7694C5.44068 20.2168 5.85632 21.7135 6.02314 22.2458C6.06654 22.3866 6.02603 22.5331 5.91995 22.6334L4.83702 23.6546C4.71648 23.7684 4.5564 23.8031 4.41079 23.7722V23.7867L3.10221 23.9825C2.61523 24.0558 2.14753 23.752 2.02506 23.2747C1.6538 21.8272 1 18.3894 1 12.1522C1 5.91498 1.65476 2.47818 2.02506 1.03074C2.14753 0.552433 2.61523 0.249628 3.10221 0.322916L4.41079 0.518676Z" stroke="#B3B3B3" stroke-width="0.612" stroke-miterlimit="2.622"/><path d="M5.14924 17.7694C4.95542 16.2477 4.81945 14.5476 4.79631 12.6971C4.76834 10.4116 4.91878 8.34219 5.14829 6.53699" stroke="#B3B3B3" stroke-width="0.612" stroke-miterlimit="2.622"/><path d="M4.41185 23.7722C3.74454 20.7665 3.16885 16.9478 3.13799 12.5129C3.1052 7.74817 3.71272 3.67007 4.41185 0.518677" stroke="#B3B3B3" stroke-width="0.612" stroke-miterlimit="2.622"/></g><g id="C2" data-id="C2" transform="translate(485, 125)"><path d="M4.41079 0.518676V0.533096C4.5564 0.502238 4.71648 0.536962 4.83702 0.650752L5.91995 1.67199C6.02506 1.77131 6.06654 1.91882 6.02314 2.05768C5.85632 2.58998 5.44068 4.08759 5.14656 6.53697C5.18321 6.46753 5.21118 6.39231 5.24976 6.32384L5.94021 6.84844C6.11861 6.98248 6.37318 6.94197 6.49758 6.75586L7.08774 5.88318C7.19671 5.72117 7.16874 5.50322 7.0212 5.374L6.31533 4.75588C8.28736 2.35472 11.2787 0.820497 14.6249 0.820497H22.3703C23.8216 0.820497 25 1.99889 25 3.45019V20.8562C25 22.3075 23.8216 23.4858 22.3703 23.4858H14.6249C11.2787 23.4858 8.28833 21.9526 6.3163 19.5524L7.0212 18.9352C7.16874 18.806 7.19671 18.5881 7.08774 18.4261L6.49758 17.5534C6.37318 17.3682 6.11861 17.3267 5.94021 17.4608L5.25071 17.9844C5.21214 17.915 5.18417 17.8398 5.14656 17.7694C5.44068 20.2168 5.85632 21.7135 6.02314 22.2458C6.06654 22.3866 6.02603 22.5331 5.91995 22.6334L4.83702 23.6546C4.71648 23.7684 4.5564 23.8031 4.41079 23.7722V23.7867L3.10221 23.9825C2.61523 24.0558 2.14753 23.752 2.02506 23.2747C1.6538 21.8272 1 18.3894 1 12.1522C1 5.91498 1.65476 2.47818 2.02506 1.03074C2.14753 0.552433 2.61523 0.249628 3.10221 0.322916L4.41079 0.518676Z" stroke="#B3B3B3" stroke-width="0.612" stroke-miterlimit="2.622"/><path d="M5.14924 17.7694C4.95542 16.2477 4.81945 14.5476 4.79631 12.6971C4.76834 10.4116 4.91878 8.34219 5.14829 6.53699" stroke="#B3B3B3" stroke-width="0.612" stroke-miterlimit="2.622"/><path d="M4.41185 23.7722C3.74454 20.7665 3.16885 16.9478 3.13799 12.5129C3.1052 7.74817 3.71272 3.67007 4.41185 0.518677" stroke="#B3B3B3" stroke-width="0.612" stroke-miterlimit="2.622"/></g><g id="C3" data-id="C3" transform="translate(505, 365)"><path d="M4.41079 0.518676V0.533096C4.5564 0.502238 4.71648 0.536962 4.83702 0.650752L5.91995 1.67199C6.02506 1.77131 6.06654 1.91882 6.02314 2.05768C5.85632 2.58998 5.44068 4.08759 5.14656 6.53697C5.18321 6.46753 5.21118 6.39231 5.24976 6.32384L5.94021 6.84844C6.11861 6.98248 6.37318 6.94197 6.49758 6.75586L7.08774 5.88318C7.19671 5.72117 7.16874 5.50322 7.0212 5.374L6.31533 4.75588C8.28736 2.35472 11.2787 0.820497 14.6249 0.820497H22.3703C23.8216 0.820497 25 1.99889 25 3.45019V20.8562C25 22.3075 23.8216 23.4858 22.3703 23.4858H14.6249C11.2787 23.4858 8.28833 21.9526 6.3163 19.5524L7.0212 18.9352C7.16874 18.806 7.19671 18.5881 7.08774 18.4261L6.49758 17.5534C6.37318 17.3682 6.11861 17.3267 5.94021 17.4608L5.25071 17.9844C5.21214 17.915 5.18417 17.8398 5.14656 17.7694C5.44068 20.2168 5.85632 21.7135 6.02314 22.2458C6.06654 22.3866 6.02603 22.5331 5.91995 22.6334L4.83702 23.6546C4.71648 23.7684 4.5564 23.8031 4.41079 23.7722V23.7867L3.10221 23.9825C2.61523 24.0558 2.14753 23.752 2.02506 23.2747C1.6538 21.8272 1 18.3894 1 12.1522C1 5.91498 1.65476 2.47818 2.02506 1.03074C2.14753 0.552433 2.61523 0.249628 3.10221 0.322916L4.41079 0.518676Z" stroke="#B3B3B3" stroke-width="0.612" stroke-miterlimit="2.622"/><path d="M5.14924 17.7694C4.95542 16.2477 4.81945 14.5476 4.79631 12.6971C4.76834 10.4116 4.91878 8.34219 5.14829 6.53699" stroke="#B3B3B3" stroke-width="0.612" stroke-miterlimit="2.622"/><path d="M4.41185 23.7722C3.74454 20.7665 3.16885 16.9478 3.13799 12.5129C3.1052 7.74817 3.71272 3.67007 4.41185 0.518677" stroke="#B3B3B3" stroke-width="0.612" stroke-miterlimit="2.622"/></g><g id="C4" data-id="C4" transform="translate(305, 365)"><path d="M4.41079 0.518676V0.533096C4.5564 0.502238 4.71648 0.536962 4.83702 0.650752L5.91995 1.67199C6.02506 1.77131 6.06654 1.91882 6.02314 2.05768C5.85632 2.58998 5.44068 4.08759 5.14656 6.53697C5.18321 6.46753 5.21118 6.39231 5.24976 6.32384L5.94021 6.84844C6.11861 6.98248 6.37318 6.94197 6.49758 6.75586L7.08774 5.88318C7.19671 5.72117 7.16874 5.50322 7.0212 5.374L6.31533 4.75588C8.28736 2.35472 11.2787 0.820497 14.6249 0.820497H22.3703C23.8216 0.820497 25 1.99889 25 3.45019V20.8562C25 22.3075 23.8216 23.4858 22.3703 23.4858H14.6249C11.2787 23.4858 8.28833 21.9526 6.3163 19.5524L7.0212 18.9352C7.16874 18.806 7.19671 18.5881 7.08774 18.4261L6.49758 17.5534C6.37318 17.3682 6.11861 17.3267 5.94021 17.4608L5.25071 17.9844C5.21214 17.915 5.18417 17.8398 5.14656 17.7694C5.44068 20.2168 5.85632 21.7135 6.02314 22.2458C6.06654 22.3866 6.02603 22.5331 5.91995 22.6334L4.83702 23.6546C4.71648 23.7684 4.5564 23.8031 4.41079 23.7722V23.7867L3.10221 23.9825C2.61523 24.0558 2.14753 23.752 2.02506 23.2747C1.6538 21.8272 1 18.3894 1 12.1522C1 5.91498 1.65476 2.47818 2.02506 1.03074C2.14753 0.552433 2.61523 0.249628 3.10221 0.322916L4.41079 0.518676Z" stroke="#B3B3B3" stroke-width="0.612" stroke-miterlimit="2.622"/><path d="M5.14924 17.7694C4.95542 16.2477 4.81945 14.5476 4.79631 12.6971C4.76834 10.4116 4.91878 8.34219 5.14829 6.53699" stroke="#B3B3B3" stroke-width="0.612" stroke-miterlimit="2.622"/><path d="M4.41185 23.7722C3.74454 20.7665 3.16885 16.9478 3.13799 12.5129C3.1052 7.74817 3.71272 3.67007 4.41185 0.518677" stroke="#B3B3B3" stroke-width="0.612" stroke-miterlimit="2.622"/></g><g id="C5" data-id="C5" transform="translate(665, 125)"><path d="M4.41079 0.518676V0.533096C4.5564 0.502238 4.71648 0.536962 4.83702 0.650752L5.91995 1.67199C6.02506 1.77131 6.06654 1.91882 6.02314 2.05768C5.85632 2.58998 5.44068 4.08759 5.14656 6.53697C5.18321 6.46753 5.21118 6.39231 5.24976 6.32384L5.94021 6.84844C6.11861 6.98248 6.37318 6.94197 6.49758 6.75586L7.08774 5.88318C7.19671 5.72117 7.16874 5.50322 7.0212 5.374L6.31533 4.75588C8.28736 2.35472 11.2787 0.820497 14.6249 0.820497H22.3703C23.8216 0.820497 25 1.99889 25 3.45019V20.8562C25 22.3075 23.8216 23.4858 22.3703 23.4858H14.6249C11.2787 23.4858 8.28833 21.9526 6.3163 19.5524L7.0212 18.9352C7.16874 18.806 7.19671 18.5881 7.08774 18.4261L6.49758 17.5534C6.37318 17.3682 6.11861 17.3267 5.94021 17.4608L5.25071 17.9844C5.21214 17.915 5.18417 17.8398 5.14656 17.7694C5.44068 20.2168 5.85632 21.7135 6.02314 22.2458C6.06654 22.3866 6.02603 22.5331 5.91995 22.6334L4.83702 23.6546C4.71648 23.7684 4.5564 23.8031 4.41079 23.7722V23.7867L3.10221 23.9825C2.61523 24.0558 2.14753 23.752 2.02506 23.2747C1.6538 21.8272 1 18.3894 1 12.1522C1 5.91498 1.65476 2.47818 2.02506 1.03074C2.14753 0.552433 2.61523 0.249628 3.10221 0.322916L4.41079 0.518676Z" stroke="#B3B3B3" stroke-width="0.612" stroke-miterlimit="2.622"/><path d="M5.14924 17.7694C4.95542 16.2477 4.81945 14.5476 4.79631 12.6971C4.76834 10.4116 4.91878 8.34219 5.14829 6.53699" stroke="#B3B3B3" stroke-width="0.612" stroke-miterlimit="2.622"/><path d="M4.41185 23.7722C3.74454 20.7665 3.16885 16.9478 3.13799 12.5129C3.1052 7.74817 3.71272 3.67007 4.41185 0.518677" stroke="#B3B3B3" stroke-width="0.612" stroke-miterlimit="2.622"/></g><g id="C6" data-id="C6" transform="translate(665, 365)"><path d="M4.41079 0.518676V0.533096C4.5564 0.502238 4.71648 0.536962 4.83702 0.650752L5.91995 1.67199C6.02506 1.77131 6.06654 1.91882 6.02314 2.05768C5.85632 2.58998 5.44068 4.08759 5.14656 6.53697C5.18321 6.46753 5.21118 6.39231 5.24976 6.32384L5.94021 6.84844C6.11861 6.98248 6.37318 6.94197 6.49758 6.75586L7.08774 5.88318C7.19671 5.72117 7.16874 5.50322 7.0212 5.374L6.31533 4.75588C8.28736 2.35472 11.2787 0.820497 14.6249 0.820497H22.3703C23.8216 0.820497 25 1.99889 25 3.45019V20.8562C25 22.3075 23.8216 23.4858 22.3703 23.4858H14.6249C11.2787 23.4858 8.28833 21.9526 6.3163 19.5524L7.0212 18.9352C7.16874 18.806 7.19671 18.5881 7.08774 18.4261L6.49758 17.5534C6.37318 17.3682 6.11861 17.3267 5.94021 17.4608L5.25071 17.9844C5.21214 17.915 5.18417 17.8398 5.14656 17.7694C5.44068 20.2168 5.85632 21.7135 6.02314 22.2458C6.06654 22.3866 6.02603 22.5331 5.91995 22.6334L4.83702 23.6546C4.71648 23.7684 4.5564 23.8031 4.41079 23.7722V23.7867L3.10221 23.9825C2.61523 24.0558 2.14753 23.752 2.02506 23.2747C1.6538 21.8272 1 18.3894 1 12.1522C1 5.91498 1.65476 2.47818 2.02506 1.03074C2.14753 0.552433 2.61523 0.249628 3.10221 0.322916L4.41079 0.518676Z" stroke="#B3B3B3" stroke-width="0.612" stroke-miterlimit="2.622"/><path d="M5.14924 17.7694C4.95542 16.2477 4.81945 14.5476 4.79631 12.6971C4.76834 10.4116 4.91878 8.34219 5.14829 6.53699" stroke="#B3B3B3" stroke-width="0.612" stroke-miterlimit="2.622"/><path d="M4.41185 23.7722C3.74454 20.7665 3.16885 16.9478 3.13799 12.5129C3.1052 7.74817 3.71272 3.67007 4.41185 0.518677" stroke="#B3B3B3" stroke-width="0.612" stroke-miterlimit="2.622"/></g></svg>